<?xml version="1.0" encoding="utf-8"?>
<!-- Generator: Adobe Illustrator 16.0.0, SVG Export Plug-In . SVG Version: 6.00 Build 0)  -->
<!DOCTYPE svg PUBLIC "-//W3C//DTD SVG 1.1//EN" "http://www.w3.org/Graphics/SVG/1.1/DTD/svg11.dtd">
<svg version="1.1" xmlns="http://www.w3.org/2000/svg" xmlns:xlink="http://www.w3.org/1999/xlink" x="0px" y="0px" width="1400px"
	 height="980px" viewBox="0 0 1400 980" enable-background="new 0 0 1400 980" xml:space="preserve">
<pattern  width="27.032" height="27.032" patternUnits="userSpaceOnUse" id="New_Pattern_Swatch_3" viewBox="0 -27.032 27.032 27.032" overflow="visible">
	<g>
		<polygon fill="none" points="0,0 27.032,0 27.032,-27.032 0,-27.032 		"/>
		<g>
			<defs>
				<rect id="SVGID_1_" x="0" y="-27.031" width="27.032" height="27.032"/>
			</defs>
			<clipPath id="SVGID_2_">
				<use xlink:href="#SVGID_1_"  overflow="visible"/>
			</clipPath>
			<polygon clip-path="url(#SVGID_2_)" fill="#EEF7FF" points="12.284,-2.395 0,-2.395 0,-13.072 12.284,-13.072 			"/>
			<polygon clip-path="url(#SVGID_2_)" fill="#EEF7FF" points="27.032,-2.395 14.438,-2.395 14.438,-13.072 27.032,-13.072 			"/>
			<polygon clip-path="url(#SVGID_2_)" fill="#EEF7FF" points="25.645,-14.564 1.077,-14.564 1.077,-25.242 25.645,-25.242 			"/>
		</g>
	</g>
</pattern>
<g id="BACKGROUND">
</g>
<g id="OBJECTS">
	<g>
		<defs>
			<rect id="SVGID_3_" x="-20.072" y="-22.956" width="1440.144" height="1014.102"/>
		</defs>
		<clipPath id="SVGID_4_">
			<use xlink:href="#SVGID_3_"  overflow="visible"/>
		</clipPath>
		<rect x="-20.072" y="-22.956" clip-path="url(#SVGID_4_)" fill="#A9E2FF" width="1440.144" height="1014.102"/>
		<rect x="-91.351" y="900.247" clip-path="url(#SVGID_4_)" fill="#38A6E8" width="1570.099" height="129.979"/>
		<rect x="-46.942" y="-36.269" clip-path="url(#SVGID_4_)" fill="#113E60" width="1719.006" height="75.071"/>
		<pattern  id="SVGID_5_" xlink:href="#New_Pattern_Swatch_3" patternTransform="matrix(1 0 0 1 35.9609 -18.1816)">
		</pattern>
		
			<rect x="-46.942" y="38.457" opacity="0.34" clip-path="url(#SVGID_4_)" fill="url(#SVGID_5_)" stroke="#B5DCE8" stroke-miterlimit="10" width="1525.69" height="509.564"/>
		<rect x="-44.57" y="548.021" clip-path="url(#SVGID_4_)" fill="#9AD9ED" width="1523.318" height="352.227"/>
		<g clip-path="url(#SVGID_4_)">
			<rect x="-42.394" y="367.107" fill="#3E799E" width="280.572" height="520.289"/>
			<rect x="-27.773" y="381.56" fill="#4F9ABF" width="251.331" height="467.886"/>
			<rect x="90.582" y="367.107" fill="#3E799E" width="14.621" height="520.289"/>
			<rect x="-42.394" y="499.886" fill="#3E799E" width="280.572" height="14.62"/>
			<rect x="-42.394" y="615.502" fill="#3E799E" width="280.572" height="14.621"/>
			<rect x="-42.394" y="731.118" fill="#3E799E" width="280.572" height="14.621"/>
			<rect x="-27.773" y="381.56" fill="#32637C" width="118.355" height="118.355"/>
			<rect x="105.203" y="514.506" fill="#32637C" width="118.355" height="100.996"/>
			<rect x="-27.773" y="630.123" fill="#32637C" width="118.355" height="100.995"/>
			<rect x="105.203" y="745.739" fill="#32637C" width="118.355" height="103.706"/>
			<circle fill="#EEF7FF" cx="71.972" cy="440.737" r="9.251"/>
			<circle fill="#EEF7FF" cx="121.685" cy="565.004" r="9.251"/>
			<circle fill="#EEF7FF" cx="71.972" cy="680.621" r="9.251"/>
			<circle fill="#EEF7FF" cx="121.685" cy="797.592" r="9.251"/>
			<g>
				<path fill="#E9EAEE" d="M221.271,496.688l-14.833,0.043l-0.231-79.499c0,0,3.097,2.852,7.425,2.839
					c3.251-0.009,7.408-2.882,7.408-2.882L221.271,496.688z"/>
				<path fill="#7FABCC" d="M207.874,498.753l-1.202,0.004c-1.87,0.005-3.391-1.507-3.396-3.377l-0.225-77.135
					c-0.005-1.871,1.506-3.391,3.377-3.396l1.202-0.003L207.874,498.753z"/>
				<path fill="#7FABCC" d="M220.184,498.718l-1.202,0.003l-0.244-83.908l1.202-0.003c1.871-0.005,3.391,1.506,3.396,3.377
					l0.225,77.134C223.567,497.191,222.055,498.712,220.184,498.718z"/>
				
					<rect x="206.438" y="494.685" transform="matrix(1 -0.0029 0.0029 1 -1.4477 0.6247)" fill="#7FABCC" width="14.064" height="4.053"/>
				<line fill="none" stroke="#729CB7" stroke-miterlimit="10" x1="209.673" y1="419.294" x2="209.866" y2="485.577"/>
				<line fill="none" stroke="#729CB7" stroke-miterlimit="10" x1="213.248" y1="420.356" x2="213.441" y2="486.639"/>
				<line fill="none" stroke="#729CB7" stroke-miterlimit="10" x1="216.166" y1="419.812" x2="216.359" y2="486.095"/>
			</g>
			<g>
				<path fill="#E9EAEE" d="M200.618,496.688l-14.833,0.043l-0.231-79.499c0,0,3.097,2.852,7.425,2.839
					c3.25-0.009,7.408-2.882,7.408-2.882L200.618,496.688z"/>
				<path fill="#7FABCC" d="M187.222,498.753l-1.202,0.004c-1.87,0.005-3.391-1.507-3.396-3.377l-0.225-77.135
					c-0.005-1.871,1.506-3.391,3.377-3.396l1.202-0.003L187.222,498.753z"/>
				<path fill="#7FABCC" d="M199.532,498.718l-1.202,0.003l-0.245-83.908l1.202-0.003c1.871-0.005,3.391,1.506,3.396,3.377
					l0.225,77.134C202.914,497.191,201.402,498.712,199.532,498.718z"/>
				
					<rect x="185.786" y="494.685" transform="matrix(1 -0.0029 0.0029 1 -1.4478 0.5644)" fill="#7FABCC" width="14.064" height="4.053"/>
				<line fill="none" stroke="#729CB7" stroke-miterlimit="10" x1="189.021" y1="419.294" x2="189.214" y2="485.577"/>
				<line fill="none" stroke="#729CB7" stroke-miterlimit="10" x1="192.595" y1="420.356" x2="192.788" y2="486.639"/>
				<line fill="none" stroke="#729CB7" stroke-miterlimit="10" x1="195.514" y1="419.812" x2="195.707" y2="486.095"/>
			</g>
			<g>
				<path fill="#E9EAEE" d="M179.966,496.688l-14.833,0.043l-0.232-79.499c0,0,3.097,2.852,7.425,2.839
					c3.251-0.009,7.408-2.882,7.408-2.882L179.966,496.688z"/>
				<path fill="#7FABCC" d="M166.569,498.753l-1.202,0.004c-1.871,0.005-3.391-1.507-3.396-3.377l-0.225-77.135
					c-0.005-1.871,1.506-3.391,3.377-3.396l1.202-0.003L166.569,498.753z"/>
				<path fill="#7FABCC" d="M178.879,498.718l-1.202,0.003l-0.245-83.908l1.202-0.003c1.87-0.005,3.391,1.506,3.396,3.377
					l0.225,77.134C182.262,497.191,180.75,498.712,178.879,498.718z"/>
				
					<rect x="165.133" y="494.685" transform="matrix(1 -0.0029 0.0029 1 -1.4478 0.5042)" fill="#7FABCC" width="14.064" height="4.053"/>
				<line fill="none" stroke="#729CB7" stroke-miterlimit="10" x1="168.369" y1="419.294" x2="168.562" y2="485.577"/>
				<line fill="none" stroke="#729CB7" stroke-miterlimit="10" x1="171.943" y1="420.356" x2="172.136" y2="486.639"/>
				<line fill="none" stroke="#729CB7" stroke-miterlimit="10" x1="174.861" y1="419.812" x2="175.054" y2="486.095"/>
			</g>
			<g>
				<path fill="#E9EAEE" d="M44.899,611.071l-14.595,2.648l-14.191-78.223c0,0,3.55,2.264,7.808,1.491
					c3.199-0.58,6.787-4.139,6.787-4.139L44.899,611.071z"/>
				<path fill="#7FABCC" d="M32.073,615.458l-1.183,0.214c-1.84,0.334-3.603-0.887-3.937-2.728l-13.769-75.896
					c-0.333-1.84,0.888-3.603,2.728-3.937l1.183-0.215L32.073,615.458z"/>
				<path fill="#7FABCC" d="M44.186,613.26l-1.183,0.215l-14.978-82.561l1.183-0.215c1.84-0.334,3.603,0.888,3.937,2.728
					l13.769,75.896C47.248,611.164,46.026,612.926,44.186,613.26z"/>
				
					<rect x="30.191" y="610.438" transform="matrix(0.9839 -0.1785 0.1785 0.9839 -108.7384 16.4835)" fill="#7FABCC" width="14.064" height="4.052"/>
				<line fill="none" stroke="#729CB7" stroke-miterlimit="10" x1="19.889" y1="536.918" x2="31.72" y2="602.137"/>
				<line fill="none" stroke="#729CB7" stroke-miterlimit="10" x1="23.594" y1="537.336" x2="35.426" y2="602.555"/>
				<line fill="none" stroke="#729CB7" stroke-miterlimit="10" x1="26.371" y1="536.287" x2="38.203" y2="601.506"/>
			</g>
			<g>
				<path fill="#E9EAEE" d="M11.771,611.174l-14.833,0.043l-0.231-79.498c0,0,3.097,2.852,7.425,2.839
					c3.251-0.01,7.408-2.882,7.408-2.882L11.771,611.174z"/>
				<path fill="#7FABCC" d="M-1.626,613.239l-1.202,0.003c-1.871,0.006-3.391-1.506-3.396-3.376l-0.225-77.135
					c-0.005-1.871,1.506-3.392,3.377-3.397l1.202-0.003L-1.626,613.239z"/>
				<path fill="#7FABCC" d="M10.684,613.203l-1.202,0.004l-0.245-83.908l1.202-0.004c1.87-0.005,3.391,1.507,3.396,3.377
					l0.225,77.135C14.066,611.677,12.555,613.198,10.684,613.203z"/>
				
					<rect x="-3.062" y="609.171" transform="matrix(1 -0.0029 0.0029 1 -1.7824 0.0142)" fill="#7FABCC" width="14.064" height="4.052"/>
				<line fill="none" stroke="#729CB7" stroke-miterlimit="10" x1="0.173" y1="533.78" x2="0.366" y2="600.063"/>
				<line fill="none" stroke="#729CB7" stroke-miterlimit="10" x1="3.748" y1="534.843" x2="3.94" y2="601.125"/>
				<line fill="none" stroke="#729CB7" stroke-miterlimit="10" x1="6.666" y1="534.298" x2="6.859" y2="600.58"/>
			</g>
			<g>
				<path fill="#E9EAEE" d="M-8.882,611.174l-14.833,0.043l-0.231-79.498c0,0,3.097,2.852,7.425,2.839
					c3.251-0.01,7.408-2.882,7.408-2.882L-8.882,611.174z"/>
				<path fill="#7FABCC" d="M-22.278,613.239l-1.202,0.003c-1.871,0.006-3.391-1.506-3.396-3.376l-0.225-77.135
					c-0.006-1.871,1.506-3.392,3.377-3.397l1.202-0.003L-22.278,613.239z"/>
				<path fill="#7FABCC" d="M-9.968,613.203l-1.202,0.004l-0.244-83.908l1.202-0.004c1.87-0.005,3.391,1.507,3.396,3.377
					l0.225,77.135C-6.586,611.677-8.098,613.198-9.968,613.203z"/>
				
					<rect x="-23.715" y="609.171" transform="matrix(1 -0.0029 0.0029 1 -1.7825 -0.0461)" fill="#7FABCC" width="14.065" height="4.052"/>
				<line fill="none" stroke="#729CB7" stroke-miterlimit="10" x1="-20.479" y1="533.78" x2="-20.286" y2="600.063"/>
				<line fill="none" stroke="#729CB7" stroke-miterlimit="10" x1="-16.905" y1="534.843" x2="-16.712" y2="601.125"/>
				<line fill="none" stroke="#729CB7" stroke-miterlimit="10" x1="-13.986" y1="534.298" x2="-13.793" y2="600.58"/>
			</g>
			<g>
				<path fill="#E9EAEE" d="M149.828,725.562l14.595,2.647l14.191-78.222c0,0-3.55,2.263-7.808,1.49
					c-3.199-0.58-6.787-4.138-6.787-4.138L149.828,725.562z"/>
				<path fill="#7FABCC" d="M162.653,729.947l1.183,0.215c1.841,0.334,3.603-0.888,3.937-2.729l13.769-75.896
					c0.334-1.841-0.887-3.604-2.728-3.938l-1.182-0.214L162.653,729.947z"/>
				<path fill="#7FABCC" d="M150.541,727.75l1.183,0.215l14.978-82.562l-1.183-0.215c-1.84-0.333-3.603,0.888-3.937,2.729
					l-13.769,75.896C147.479,725.653,148.701,727.416,150.541,727.75z"/>
				
					<rect x="150.471" y="724.928" transform="matrix(-0.9839 -0.1785 0.1785 -0.9839 182.7013 1470.3481)" fill="#7FABCC" width="14.064" height="4.052"/>
				<line fill="none" stroke="#729CB7" stroke-miterlimit="10" x1="174.838" y1="651.407" x2="163.006" y2="716.626"/>
				<line fill="none" stroke="#729CB7" stroke-miterlimit="10" x1="171.133" y1="651.825" x2="159.301" y2="717.044"/>
				<line fill="none" stroke="#729CB7" stroke-miterlimit="10" x1="168.355" y1="650.776" x2="156.523" y2="715.995"/>
			</g>
			<g>
				<path fill="#E9EAEE" d="M182.956,728.373l14.833,0.044l0.231-79.499c0,0-3.097,2.852-7.425,2.839
					c-3.251-0.009-7.408-2.882-7.408-2.882L182.956,728.373z"/>
				<path fill="#7FABCC" d="M196.353,730.438l1.202,0.004c1.871,0.005,3.392-1.507,3.397-3.377l0.225-77.135
					c0.005-1.87-1.506-3.392-3.377-3.396l-1.202-0.004L196.353,730.438z"/>
				<path fill="#7FABCC" d="M184.042,730.403l1.202,0.003l0.244-83.908l-1.202-0.004c-1.871-0.005-3.391,1.507-3.397,3.377
					l-0.225,77.135C180.66,728.877,182.172,730.397,184.042,730.403z"/>
				
					<rect x="183.725" y="726.37" transform="matrix(-1 -0.0029 0.0029 -1 379.3892 1457.3462)" fill="#7FABCC" width="14.064" height="4.053"/>
				<line fill="none" stroke="#729CB7" stroke-miterlimit="10" x1="194.554" y1="650.979" x2="194.36" y2="717.263"/>
				<line fill="none" stroke="#729CB7" stroke-miterlimit="10" x1="190.979" y1="652.042" x2="190.786" y2="718.325"/>
				<line fill="none" stroke="#729CB7" stroke-miterlimit="10" x1="188.061" y1="651.497" x2="187.868" y2="717.78"/>
			</g>
			<g>
				<path fill="#E9EAEE" d="M203.608,728.373l14.833,0.044l0.231-79.499c0,0-3.097,2.852-7.425,2.839
					c-3.251-0.009-7.408-2.882-7.408-2.882L203.608,728.373z"/>
				<path fill="#7FABCC" d="M217.005,730.438l1.202,0.004c1.87,0.005,3.391-1.507,3.396-3.377l0.225-77.135
					c0.005-1.87-1.506-3.392-3.377-3.396l-1.202-0.004L217.005,730.438z"/>
				<path fill="#7FABCC" d="M204.695,730.403l1.202,0.003l0.245-83.908l-1.202-0.004c-1.871-0.005-3.391,1.507-3.396,3.377
					l-0.225,77.135C201.312,728.877,202.825,730.397,204.695,730.403z"/>
				
					<rect x="204.377" y="726.37" transform="matrix(-1 -0.0029 0.0029 -1 420.6938 1457.4064)" fill="#7FABCC" width="14.064" height="4.053"/>
				<line fill="none" stroke="#729CB7" stroke-miterlimit="10" x1="215.206" y1="650.979" x2="215.013" y2="717.263"/>
				<line fill="none" stroke="#729CB7" stroke-miterlimit="10" x1="211.632" y1="652.042" x2="211.438" y2="718.325"/>
				<line fill="none" stroke="#729CB7" stroke-miterlimit="10" x1="208.713" y1="651.497" x2="208.52" y2="717.78"/>
			</g>
		</g>
		<g clip-path="url(#SVGID_4_)">
			<path fill="#93B5CE" d="M874.636,130.621H550.537c-5.262,0-9.527,4.266-9.527,9.527v63.264c0,10.602,8.594,19.196,19.196,19.196
				h304.762c10.602,0,19.196-8.594,19.196-19.196v-63.264C884.163,134.887,879.897,130.621,874.636,130.621z"/>
			<path fill="#FFFFFF" d="M884.163,140.148c0-5.262-4.266-9.527-9.527-9.527H550.537c-5.262,0-9.527,4.266-9.527,9.527v52.864
				h343.154V140.148z"/>
			<rect x="567.721" y="193.012" fill="#5F7A87" width="294.522" height="18.198"/>
			<rect x="567.721" y="193.012" fill="#93B5CE" width="294.522" height="3.268"/>
			<rect x="567.721" y="201.01" fill="#93B5CE" width="294.522" height="3.269"/>
			<rect x="710.085" y="193.012" fill="#93B5CE" width="6.398" height="18.198"/>
			<rect x="548.792" y="168.021" fill="#93B5CE" width="18.928" height="18.928"/>
			<rect x="548.792" y="137.628" fill="none" stroke="#3D92D1" stroke-miterlimit="10" width="84.54" height="24.188"/>
			<circle fill="#5F7A87" cx="851.318" cy="178.611" r="4.689"/>
		</g>
		<g clip-path="url(#SVGID_4_)">
			<rect x="1257.614" y="342.72" fill="#38A6E8" width="275.024" height="146.327"/>
			<rect x="1266.752" y="352.204" fill="#2A7CBA" width="256.75" height="127.359"/>
			<polygon fill="#113E60" points="1532.639,342.72 1523.502,352.204 1523.502,479.562 1532.639,489.047 			"/>
			<polygon fill="#205C91" points="1257.614,489.047 1266.752,479.562 1523.502,479.562 1532.639,489.047 			"/>
		</g>
		<g clip-path="url(#SVGID_4_)">
			<defs>
				<rect id="SVGID_6_" x="276.525" y="268.396" width="879.805" height="618.409"/>
			</defs>
			<clipPath id="SVGID_7_">
				<use xlink:href="#SVGID_6_"  overflow="visible"/>
			</clipPath>
			<rect x="276.525" y="268.396" clip-path="url(#SVGID_7_)" fill="#135068" width="879.805" height="618.409"/>
			<circle clip-path="url(#SVGID_7_)" fill="#FFFFFF" cx="751.591" cy="377.934" r="48.477"/>
			<g clip-path="url(#SVGID_7_)">
				<g>
					<g>
						<path fill="#D2F7FF" d="M429.49,451.014c3.217,0,3.223-5,0-5C426.272,446.014,426.267,451.014,429.49,451.014L429.49,451.014z
							"/>
					</g>
				</g>
				<g>
					<g>
						<path fill="#D2F7FF" d="M589.53,518.977c3.217,0,3.223-5,0-5C586.312,513.977,586.307,518.977,589.53,518.977L589.53,518.977z
							"/>
					</g>
				</g>
				<g>
					<g>
						<path fill="#D2F7FF" d="M633.376,404.976c3.217,0,3.222-5,0-5C630.159,399.976,630.154,404.976,633.376,404.976
							L633.376,404.976z"/>
					</g>
				</g>
				<g>
					<g>
						<path fill="#D2F7FF" d="M561.029,420.322c3.217,0,3.223-5,0-5C557.812,415.322,557.807,420.322,561.029,420.322
							L561.029,420.322z"/>
					</g>
				</g>
				<g>
					<g>
						<path fill="#D2F7FF" d="M688.161,484.626c3.217,0,3.222-5,0-5C684.943,479.626,684.938,484.626,688.161,484.626
							L688.161,484.626z"/>
					</g>
				</g>
				<g>
					<g>
						<path fill="#D2F7FF" d="M549.307,486.088c3.217,0,3.223-5,0-5C546.089,481.088,546.084,486.088,549.307,486.088
							L549.307,486.088z"/>
					</g>
				</g>
				<g>
					<g>
						<path fill="#D2F7FF" d="M512.766,575.247c3.217,0,3.223-5,0-5C509.549,570.247,509.543,575.247,512.766,575.247
							L512.766,575.247z"/>
					</g>
				</g>
				<g>
					<g>
						<path fill="#D2F7FF" d="M468.917,531.398c3.217,0,3.223-5,0-5C465.7,526.398,465.694,531.398,468.917,531.398L468.917,531.398
							z"/>
					</g>
				</g>
				<g>
					<g>
						<path fill="#D2F7FF" d="M477.687,651.251c3.217,0,3.223-5,0-5C474.47,646.251,474.464,651.251,477.687,651.251
							L477.687,651.251z"/>
					</g>
				</g>
				<g>
					<g>
						<path fill="#D2F7FF" d="M563.923,632.25c3.217,0,3.223-5,0-5C560.706,627.25,560.7,632.25,563.923,632.25L563.923,632.25z"/>
					</g>
				</g>
				<g>
					<g>
						<path fill="#D2F7FF" d="M673.544,709.717c3.217,0,3.223-5,0-5C670.327,704.717,670.322,709.717,673.544,709.717
							L673.544,709.717z"/>
					</g>
				</g>
				<g>
					<g>
						<path fill="#D2F7FF" d="M680.853,600.095c3.217,0,3.223-5,0-5C677.636,595.095,677.63,600.095,680.853,600.095
							L680.853,600.095z"/>
					</g>
				</g>
				<g>
					<g>
						<path fill="#D2F7FF" d="M642.851,635.174c3.217,0,3.223-5,0-5C639.633,630.174,639.628,635.174,642.851,635.174
							L642.851,635.174z"/>
					</g>
				</g>
				<g>
					<g>
						<path fill="#D2F7FF" d="M673.544,538.706c3.217,0,3.223-5,0-5C670.327,533.706,670.322,538.706,673.544,538.706
							L673.544,538.706z"/>
					</g>
				</g>
				<g>
					<g>
						<path fill="#D2F7FF" d="M810.938,493.396c3.217,0,3.223-5,0-5C807.72,488.396,807.715,493.396,810.938,493.396
							L810.938,493.396z"/>
					</g>
				</g>
				<g>
					<g>
						<path fill="#D2F7FF" d="M762.704,426.161c3.217,0,3.222-5,0-5C759.486,421.161,759.481,426.161,762.704,426.161
							L762.704,426.161z"/>
					</g>
				</g>
				<g>
					<g>
						<path fill="#D2F7FF" d="M715.932,420.314c3.218,0,3.223-5,0-5C712.715,415.314,712.709,420.314,715.932,420.314
							L715.932,420.314z"/>
					</g>
				</g>
				<g>
					<g>
						<path fill="#D2F7FF" d="M752.473,306.308c3.217,0,3.223-5,0-5C749.255,301.308,749.25,306.308,752.473,306.308
							L752.473,306.308z"/>
					</g>
				</g>
				<g>
					<g>
						<path fill="#D2F7FF" d="M618.003,339.925c3.217,0,3.223-5,0-5C614.786,334.925,614.78,339.925,618.003,339.925
							L618.003,339.925z"/>
					</g>
				</g>
				<g>
					<g>
						<path fill="#D2F7FF" d="M599.002,465.625c3.217,0,3.222-5,0-5C595.785,460.625,595.779,465.625,599.002,465.625
							L599.002,465.625z"/>
					</g>
				</g>
				<g>
					<g>
						<path fill="#D2F7FF" d="M756.857,601.556c3.217,0,3.223-5,0-5C753.64,596.556,753.635,601.556,756.857,601.556
							L756.857,601.556z"/>
					</g>
				</g>
				<g>
					<g>
						<path fill="#D2F7FF" d="M739.317,548.938c3.218,0,3.223-5,0-5C736.101,543.938,736.095,548.938,739.317,548.938
							L739.317,548.938z"/>
					</g>
				</g>
				<g>
					<g>
						<path fill="#D2F7FF" d="M954.177,531.398c3.217,0,3.223-5,0-5C950.959,526.398,950.954,531.398,954.177,531.398
							L954.177,531.398z"/>
					</g>
				</g>
				<g>
					<g>
						<path fill="#D2F7FF" d="M938.099,373.542c3.218,0,3.223-5,0-5C934.882,368.542,934.876,373.542,938.099,373.542
							L938.099,373.542z"/>
					</g>
				</g>
				<g>
					<g>
						<path fill="#D2F7FF" d="M866.479,405.698c3.217,0,3.222-5,0-5C863.262,400.698,863.257,405.698,866.479,405.698
							L866.479,405.698z"/>
					</g>
				</g>
				<g>
					<g>
						<path fill="#D2F7FF" d="M808.014,275.614c3.218,0,3.223-5,0-5C804.797,270.614,804.791,275.614,808.014,275.614
							L808.014,275.614z"/>
					</g>
				</g>
				<g>
					<g>
						<path fill="#D2F7FF" d="M536.152,250.766c3.217,0,3.223-5,0-5C532.935,245.766,532.929,250.766,536.152,250.766
							L536.152,250.766z"/>
					</g>
				</g>
				<g>
					<g>
						<path fill="#D2F7FF" d="M332.986,472.933c3.217,0,3.223-5,0-5C329.769,467.933,329.763,472.933,332.986,472.933
							L332.986,472.933z"/>
					</g>
				</g>
				<g>
					<g>
						<path fill="#D2F7FF" d="M408.99,692.177c3.218,0,3.223-5,0-5C405.773,687.177,405.768,692.177,408.99,692.177L408.99,692.177z
							"/>
					</g>
				</g>
				<g>
					<g>
						<path fill="#D2F7FF" d="M495.227,722.871c3.217,0,3.223-5,0-5C492.009,717.871,492.004,722.871,495.227,722.871
							L495.227,722.871z"/>
					</g>
				</g>
				<g>
					<g>
						<path fill="#D2F7FF" d="M547.845,690.715c3.217,0,3.223-5,0-5C544.627,685.715,544.622,690.715,547.845,690.715
							L547.845,690.715z"/>
					</g>
				</g>
				<g>
					<g>
						<path fill="#D2F7FF" d="M411.914,605.94c3.217,0,3.223-5,0-5C408.696,600.94,408.691,605.94,411.914,605.94L411.914,605.94z"
							/>
					</g>
				</g>
				<g>
					<g>
						<path fill="#D2F7FF" d="M404.605,535.783c3.217,0,3.223-5,0-5C401.388,530.783,401.383,535.783,404.605,535.783
							L404.605,535.783z"/>
					</g>
				</g>
				<g>
					<g>
						<path fill="#D2F7FF" d="M360.757,581.094c3.217,0,3.223-5,0-5C357.54,576.094,357.534,581.094,360.757,581.094
							L360.757,581.094z"/>
					</g>
				</g>
				<g>
					<g>
						<path fill="#D2F7FF" d="M392.913,391.082c3.217,0,3.223-5,0-5C389.695,386.082,389.69,391.082,392.913,391.082
							L392.913,391.082z"/>
					</g>
				</g>
				<g>
					<g>
						<path fill="#D2F7FF" d="M373.912,318.001c3.217,0,3.223-5,0-5C370.694,313.001,370.689,318.001,373.912,318.001
							L373.912,318.001z"/>
					</g>
				</g>
				<g>
					<g>
						<path fill="#D2F7FF" d="M501.073,303.385c3.217,0,3.223-5,0-5C497.855,298.385,497.85,303.385,501.073,303.385
							L501.073,303.385z"/>
					</g>
				</g>
				<g>
					<g>
						<path fill="#D2F7FF" d="M476.225,382.312c3.217,0,3.223-5,0-5C473.008,377.312,473.003,382.312,476.225,382.312
							L476.225,382.312z"/>
					</g>
				</g>
				<g>
					<g>
						<path fill="#D2F7FF" d="M606.31,262.459c3.217,0,3.222-5,0-5C603.093,257.459,603.087,262.459,606.31,262.459L606.31,262.459z
							"/>
					</g>
				</g>
				<g>
					<g>
						<path fill="#D2F7FF" d="M543.46,171.838c3.217,0,3.223-5,0-5C540.243,166.838,540.237,171.838,543.46,171.838L543.46,171.838z
							"/>
					</g>
				</g>
				<g>
					<g>
						<path fill="#D2F7FF" d="M739.317,174.762c3.218,0,3.223-5,0-5C736.101,169.762,736.095,174.762,739.317,174.762
							L739.317,174.762z"/>
					</g>
				</g>
				<g>
					<g>
						<path fill="#D2F7FF" d="M653.082,234.688c3.217,0,3.223-5,0-5C649.865,229.688,649.859,234.688,653.082,234.688
							L653.082,234.688z"/>
					</g>
				</g>
				<g>
					<g>
						<path fill="#D2F7FF" d="M688.161,296.076c3.217,0,3.222-5,0-5C684.943,291.076,684.938,296.076,688.161,296.076
							L688.161,296.076z"/>
					</g>
				</g>
				<g>
					<g>
						<path fill="#D2F7FF" d="M768.55,239.073c3.218,0,3.223-5,0-5C765.333,234.073,765.327,239.073,768.55,239.073L768.55,239.073z
							"/>
					</g>
				</g>
				<g>
					<g>
						<path fill="#D2F7FF" d="M851.863,198.147c3.217,0,3.222-5,0-5C848.646,193.147,848.641,198.147,851.863,198.147
							L851.863,198.147z"/>
					</g>
				</g>
				<g>
					<g>
						<path fill="#D2F7FF" d="M892.788,255.151c3.218,0,3.223-5,0-5C889.571,250.151,889.565,255.151,892.788,255.151
							L892.788,255.151z"/>
					</g>
				</g>
				<g>
					<g>
						<path fill="#D2F7FF" d="M860.633,275.614c3.217,0,3.223-5,0-5C857.415,270.614,857.41,275.614,860.633,275.614
							L860.633,275.614z"/>
					</g>
				</g>
				<g>
					<g>
						<path fill="#D2F7FF" d="M879.634,319.462c3.217,0,3.223-5,0-5C876.416,314.462,876.411,319.462,879.634,319.462
							L879.634,319.462z"/>
					</g>
				</g>
				<g>
					<g>
						<path fill="#D2F7FF" d="M796.321,360.388c3.217,0,3.223-5,0-5C793.104,355.388,793.099,360.388,796.321,360.388
							L796.321,360.388z"/>
					</g>
				</g>
				<g>
					<g>
						<path fill="#D2F7FF" d="M1036.027,356.003c3.218,0,3.223-5,0-5C1032.811,351.003,1032.805,356.003,1036.027,356.003
							L1036.027,356.003z"/>
					</g>
				</g>
				<g>
					<g>
						<path fill="#D2F7FF" d="M986.332,458.317c3.218,0,3.223-5,0-5C983.115,453.317,983.109,458.317,986.332,458.317
							L986.332,458.317z"/>
					</g>
				</g>
				<g>
					<g>
						<path fill="#D2F7FF" d="M884.019,480.241c3.218,0,3.223-5,0-5C880.801,475.241,880.796,480.241,884.019,480.241
							L884.019,480.241z"/>
					</g>
				</g>
				<g>
					<g>
						<path fill="#D2F7FF" d="M863.556,592.786c3.218,0,3.223-5,0-5C860.339,587.786,860.333,592.786,863.556,592.786
							L863.556,592.786z"/>
					</g>
				</g>
				<g>
					<g>
						<path fill="#D2F7FF" d="M812.399,566.477c3.217,0,3.222-5,0-5C809.182,561.477,809.177,566.477,812.399,566.477
							L812.399,566.477z"/>
					</g>
				</g>
				<g>
					<g>
						<path fill="#D2F7FF" d="M791.937,636.635c3.217,0,3.223-5,0-5C788.719,631.635,788.714,636.635,791.937,636.635
							L791.937,636.635z"/>
					</g>
				</g>
				<g>
					<g>
						<path fill="#D2F7FF" d="M714.47,661.482c3.218,0,3.223-5,0-5C711.253,656.482,711.247,661.482,714.47,661.482L714.47,661.482z
							"/>
					</g>
				</g>
				<g>
					<g>
						<path fill="#D2F7FF" d="M863.556,708.255c3.218,0,3.223-5,0-5C860.339,703.255,860.333,708.255,863.556,708.255
							L863.556,708.255z"/>
					</g>
				</g>
				<g>
					<g>
						<path fill="#D2F7FF" d="M869.402,660.021c3.217,0,3.223-5,0-5C866.186,655.021,866.18,660.021,869.402,660.021
							L869.402,660.021z"/>
					</g>
				</g>
				<g>
					<g>
						<path fill="#D2F7FF" d="M949.792,641.02c3.217,0,3.223-5,0-5C946.574,636.02,946.569,641.02,949.792,641.02L949.792,641.02z"
							/>
					</g>
				</g>
				<g>
					<g>
						<path fill="#D2F7FF" d="M935.176,600.095c3.217,0,3.223-5,0-5C931.958,595.095,931.953,600.095,935.176,600.095
							L935.176,600.095z"/>
					</g>
				</g>
				<g>
					<g>
						<path fill="#D2F7FF" d="M1087.185,525.552c3.217,0,3.223-5,0-5C1083.967,520.552,1083.962,525.552,1087.185,525.552
							L1087.185,525.552z"/>
					</g>
				</g>
				<g>
					<g>
						<path fill="#D2F7FF" d="M1072.568,424.699c3.217,0,3.223-5,0-5C1069.351,419.699,1069.346,424.699,1072.568,424.699
							L1072.568,424.699z"/>
					</g>
				</g>
				<g>
					<g>
						<path fill="#D2F7FF" d="M1002.41,575.247c3.218,0,3.223-5,0-5C999.193,570.247,999.188,575.247,1002.41,575.247
							L1002.41,575.247z"/>
					</g>
				</g>
				<g>
					<g>
						<path fill="#D2F7FF" d="M1049.182,683.407c3.218,0,3.223-5,0-5C1045.965,678.407,1045.96,683.407,1049.182,683.407
							L1049.182,683.407z"/>
					</g>
				</g>
				<g>
					<g>
						<path fill="#D2F7FF" d="M1046.259,525.552c3.218,0,3.223-5,0-5C1043.042,520.552,1043.036,525.552,1046.259,525.552
							L1046.259,525.552z"/>
					</g>
				</g>
			</g>
			<polygon clip-path="url(#SVGID_7_)" fill="#7CCBDD" points="1156.33,565.379 1097.711,565.379 1097.711,627.704 
				1043.516,627.704 1043.516,699.513 962.223,699.513 962.223,782.56 905.634,782.56 905.634,666.106 843.032,666.106 
				843.032,600.606 791.508,600.606 791.508,542.347 727.828,542.347 727.828,616.865 670.182,616.865 670.182,723.404 
				595.05,723.404 595.05,633.123 509.692,633.123 509.692,736.174 405.367,736.174 405.367,550.476 348.461,550.476 
				348.461,581.638 276.525,581.638 276.525,1074.814 1156.33,1074.814 			"/>
			<polygon clip-path="url(#SVGID_7_)" fill="#61B4CE" points="276.525,656.855 373.995,656.855 373.995,600.606 444.658,600.606 
				444.658,712.009 515.112,712.009 515.112,765.61 614.018,765.61 614.018,642.56 680.407,642.56 680.407,703.577 734.603,703.577 
				734.603,656.855 790.152,656.855 790.152,732.565 835.691,732.565 835.691,799.625 917.512,799.625 917.512,881.714 
				978.409,881.714 978.409,787.278 1021.837,787.278 1021.837,739.876 1063.838,739.876 1063.838,1074.814 276.525,1074.814 			"/>
			<polygon clip-path="url(#SVGID_7_)" fill="#4EA3C4" points="276.525,614.155 347.106,614.155 347.106,722.101 424.335,722.101 
				424.335,779.158 475.82,779.158 475.82,644.664 546.585,644.664 546.585,732.565 585.565,732.565 585.565,696.657 
				629.735,696.657 629.735,555.896 698.021,555.896 698.021,732.565 765.765,732.565 765.765,783.069 796.927,783.069 
				796.927,889.195 886.453,889.195 886.453,943.149 958.158,943.149 958.158,987.219 992.029,987.219 992.029,877.411 
				1047.58,877.411 1047.58,772.069 1097.711,772.069 1097.711,706.287 1156.33,706.287 1156.33,1074.814 276.525,1074.814 			"/>
			<rect x="276.525" y="825.701" clip-path="url(#SVGID_7_)" fill="#4F9ABF" width="879.805" height="61.104"/>
			<g clip-path="url(#SVGID_7_)">
				<g>
					<rect x="276.525" y="620.312" fill="#AFCEEF" width="879.805" height="17.111"/>
					<rect x="320.009" y="626.102" fill="#AFCEEF" width="18.969" height="199.6"/>
					<rect x="405.367" y="626.102" fill="#AFCEEF" width="18.968" height="199.6"/>
					<rect x="490.724" y="626.102" fill="#AFCEEF" width="18.968" height="199.6"/>
					<rect x="576.082" y="626.102" fill="#AFCEEF" width="18.968" height="199.6"/>
					<rect x="661.439" y="626.102" fill="#AFCEEF" width="18.968" height="199.6"/>
					<rect x="746.797" y="626.102" fill="#AFCEEF" width="18.968" height="199.6"/>
					<rect x="832.154" y="626.102" fill="#AFCEEF" width="18.968" height="199.6"/>
					<rect x="917.512" y="626.102" fill="#AFCEEF" width="18.968" height="199.6"/>
					<rect x="1002.869" y="626.102" fill="#AFCEEF" width="18.968" height="199.6"/>
					<rect x="1088.227" y="626.102" fill="#AFCEEF" width="18.968" height="199.6"/>
				</g>
			</g>
			<g clip-path="url(#SVGID_7_)">
				<polygon opacity="0.24" fill="#FFFFFF" points="862.863,888.611 706.295,888.611 948.404,268.396 1104.973,268.396 				"/>
				<polygon opacity="0.24" fill="#FFFFFF" points="684.243,888.611 623.242,888.611 865.352,268.396 926.353,268.396 				"/>
				<polygon opacity="0.24" fill="#FFFFFF" points="434.64,888.611 278.071,888.611 520.181,268.396 676.749,268.396 				"/>
				<polygon opacity="0.24" fill="#FFFFFF" points="276.525,836.084 498.129,268.396 437.128,268.396 276.525,679.816 				"/>
			</g>
			<rect x="537.412" y="268.396" clip-path="url(#SVGID_7_)" fill="#A6C2E7" width="18.346" height="620.215"/>
			<rect x="855.809" y="268.396" clip-path="url(#SVGID_7_)" fill="#A6C2E7" width="18.347" height="620.215"/>
			<g clip-path="url(#SVGID_7_)">
				<path fill="none" stroke="#204660" stroke-miterlimit="10" d="M1128.02,740.187c0,0-35.555,6.756-52.544,72.32"/>
				<line fill="none" stroke="#204660" stroke-miterlimit="10" x1="1066.544" y1="710.191" x2="1063.396" y2="807.267"/>
				<path fill="none" stroke="#204660" stroke-miterlimit="10" d="M1035.881,743.363c0,0,8.525,49.964,13.293,58.086"/>
				<path fill="#B5DCE8" d="M1086.535,888.314h-35.879c-24.097,0-43.631-19.534-43.631-43.631v-4.651
					c0-31.893,31.006-29.234,31.006-58.47h61.128c0,34.107,31.007,25.691,31.007,58.47v4.651
					C1130.166,868.78,1110.632,888.314,1086.535,888.314z"/>
				<path fill="#7DA9C1" d="M1009.051,857.85c8.537,2.502,20.537,5.452,34.676,7.362c8.606,1.162,18.603,2.006,29.486,2.006
					c16.658,0,35.396-1.985,54.404-7.822c0.244-0.682,0.471-1.37,0.682-2.067c-31.525,9.949-62.427,9.08-84.283,6.135
					c-14.68-1.979-27.026-5.087-35.548-7.633C1008.646,856.51,1008.841,857.184,1009.051,857.85z"/>
				<path fill="#7DA9C1" d="M1128.263,827.739c-1.473,1.231-2.645,2.785-3.786,4.303c-0.219,0.292-0.438,0.582-0.657,0.869
					c-2.278,2.975-4.87,5.726-7.703,8.176c-3.745,3.238-6.932,4.489-9.734,3.825c-3.776-0.895-5.968-5.136-7.728-8.544
					c-1.842-3.564-4.856-8.325-9.752-8.508c-2.517-0.093-4.785,1.111-6.856,2.428c-3.411,2.169-6.612,4.694-9.516,7.508
					c-0.336,0.325-0.675,0.657-1.016,0.992c-3.587,3.522-7.283,7.165-11.853,6.831c-3.789-0.276-6.7-3.437-8.099-5.296
					c-0.988-1.313-1.871-2.761-2.724-4.161c-0.983-1.613-2-3.28-3.209-4.806c-1.619-2.043-3.249-3.165-4.984-3.431
					c-2.361-0.362-4.547,0.904-6.191,2.048c-4.856,3.376-8.977,7.874-11.915,13.008l-0.197,0.346
					c-0.834,1.467-1.695,2.984-3.067,3.582c-0.755,0.329-1.728,0.394-2.892,0.19c-3.353-0.584-6.612-2.969-8.944-6.543
					c-0.145-0.223-0.275-0.453-0.412-0.681c0,0.053-0.002,0.104-0.002,0.156v2.976c2.493,3.159,5.718,5.257,9.055,5.838
					c0.541,0.094,1.057,0.141,1.545,0.141c0.876,0,1.666-0.151,2.358-0.453c1.912-0.833,2.968-2.691,3.899-4.331l0.194-0.341
					c2.809-4.906,6.747-9.205,11.389-12.433c1.375-0.955,3.178-2.015,4.912-1.752c1.272,0.195,2.536,1.104,3.864,2.78
					c1.141,1.44,2.129,3.061,3.084,4.628c0.876,1.436,1.781,2.921,2.821,4.304c1.929,2.563,5.122,5.687,9.386,5.998
					c5.365,0.39,9.535-3.713,13.223-7.334c0.339-0.332,0.674-0.662,1.007-0.984c2.817-2.729,5.924-5.181,9.234-7.285
					c1.828-1.163,3.79-2.234,5.84-2.151c3.021,0.112,5.64,2.511,8.242,7.549c1.928,3.73,4.326,8.374,8.895,9.456
					c3.4,0.805,7.096-0.572,11.302-4.21c2.924-2.528,5.599-5.368,7.95-8.438c0.224-0.291,0.445-0.586,0.667-0.881
					c0.925-1.229,1.871-2.483,2.963-3.52C1128.675,828.949,1128.476,828.336,1128.263,827.739z"/>
				<path fill="#206FA0" d="M1142.405,784.186c-0.996-2.296-1.992-4.591-2.988-6.887l0.718,0.141c1.15,0.302,2.23,0.87,3.131,1.647
					c0.422,0.364,0.804,0.784,1.114,1.247c4.18-9.16,5.251-19.724,2.907-29.521c-1.039-4.341-2.827-8.683-6.155-11.656
					c-3.363-3.007-8.194-4.215-12.604-3.376c-2.548,0.484-3.389,1.553-5.613-0.085c-1.931-1.421-3.337-3.454-5.257-4.9
					c-3.379-2.546-7.763-3.234-11.953-3.813c-3.083-0.425-6.489-0.765-9.062,0.987c-2.613,1.78-3.528,5.144-4.254,8.221
					c-1.229,5.212-2.465,10.59-1.594,15.873c1.155,7.003,5.883,12.914,11.208,17.606c5.398,4.756,11.587,8.65,17.348,12.965
					c0.078-0.896,0.27-1.793,0.464-2.675c0.548-2.498,0.632-7.228,2.043-9.334c1.731-2.586,2.165,1.458,2.027,3.236
					c-0.138,1.772-0.663,3.494-0.863,5.261c-0.088,0.778-0.112,1.562-0.105,2.346c0.014,1.426,0.136,2.85,0.357,4.258
					c2.818,2.349,5.455,4.882,7.733,7.782c1.627,2.072,3.17,4.404,5.578,5.474C1136.431,793.605,1139.718,788.908,1142.405,784.186z
					 M1096.046,731.872c0.439-0.349,0.995-0.513,1.54-0.645c5.945-1.435,9.684,1.079,15.047,3.036
					c0.988,0.361,2.044,0.773,2.623,1.651c-3.34-0.127-6.587-1.093-9.894-1.583c-3.308-0.491-6.877-0.455-9.752,1.251
					c-0.192,0.114-0.457,0.229-0.615,0.071c-0.096-0.097-0.097-0.249-0.091-0.384
					C1094.953,734.036,1095.079,732.641,1096.046,731.872z M1100.651,748.828c-1.126,1.825-2.252,3.649-3.378,5.474
					c-0.186,0.3-0.373,0.603-0.631,0.843c-0.387,0.359-0.924,0.554-1.452,0.522c-0.926-0.054-1.709-0.769-2.113-1.604
					c-0.404-0.836-0.499-1.781-0.589-2.705c-0.13-1.351-0.238-2.808,0.46-3.972c0.556-0.926,1.531-1.504,2.468-2.043
					c2.619-1.511,5.521-3.115,8.566-3.538c2.216-0.307,5.229,1.611,2.003,3.318c-1.018,0.539-2.236,0.63-3.217,1.233
					C1101.835,746.931,1101.227,747.896,1100.651,748.828z M1111.049,756.448c-2.071,3.777-2.084,8.676-5.086,11.765
					c-1.33,0.23-2.74-0.031-3.898-0.724c-0.16-0.096-0.322-0.207-0.408-0.373c-0.109-0.214-0.07-0.47-0.028-0.707
					c0.184-1.034,0.367-2.068,0.551-3.103c0.351-1.974,0.728-4.012,1.853-5.671c0.729-1.076,1.736-1.931,2.729-2.771
					c1.048-0.886,2.095-1.772,3.143-2.658c0.753-0.637,4.146-3.524,4.914-2.073C1115.418,751.271,1111.578,755.483,1111.049,756.448
					z M1115.488,762.436c-0.329,0.731-0.87,1.591-1.667,1.494c-0.692-0.084-1.075-0.926-0.933-1.608
					c0.142-0.683,0.641-1.227,1.12-1.733c1.299-1.395,2.603-3.019,4.083-4.162C1117.485,758.477,1116.37,760.475,1115.488,762.436z
					 M1128.886,742.608c-0.311-0.241-0.623-0.62-0.48-0.986c0.139-0.358,0.604-0.433,0.987-0.452c0.566-0.029,1.134-0.058,1.7-0.087
					c0.356-0.019,0.875,0.288,0.616,0.533l1.723-0.605c-0.059,0.962-0.326,1.911-0.777,2.763
					C1131.313,743.854,1129.947,743.433,1128.886,742.608z M1136.385,769.991c-2.063-3.564-5.466-6.187-7.639-9.685
					c-0.618-0.994-1.14-2.081-1.251-3.246c-0.735-7.684,12.777,2.102,14.881,3.721c0.669,0.516,1.354,1.047,1.799,1.766
					c0.97,1.563,0.585,3.575,0.169,5.368c-0.491,2.116-0.993,4.263-2.03,6.173c-0.336,0.619-0.84,1.275-1.544,1.291
					c-0.42,0.009-0.808-0.222-1.136-0.483C1138.09,773.663,1137.375,771.7,1136.385,769.991z"/>
				<path fill="#231F20" d="M1054.514,739.985c-1.675-3.722-5.473-6.144-9.426-7.153c-3.771-0.964-8.9,0.313-12.229-1.907
					c-3.668-2.448-3.915-7.259-8.745-8.693c-1.919-0.57-3.958-0.537-5.959-0.499c-4.715,0.089-9.871,0.344-13.383,3.49
					c-1.631,1.46-2.729,3.41-3.756,5.344c-1.841,3.47-3.552,7.03-4.701,10.787c-2.31,7.554-2.268,15.587-2.809,23.467
					c-0.54,7.88-1.801,16.038-6.27,22.551c4.839-0.311,9.663-0.83,14.46-1.535c2.774-4.485,5.746-9.346,6.275-10.01
					c0.523,1.749-1.844,5.268-2.603,6.949c-0.402,0.892-0.805,1.783-1.207,2.675c7.864-1.269,15.646-3.047,23.271-5.355
					c4.464-1.352,8.954-2.93,12.692-5.711c0.198-1.827,0.396-3.655,0.594-5.483c0.086-0.794,0.173-1.594,0.12-2.391
					c-0.11-1.705-0.842-3.301-1.594-4.835c-0.906-1.848-1.869-3.695-2.329-5.7c-1.287-5.619,2.276-6.198,4.217-1.289
					c1.802,4.56,2.882,9.427,3.233,14.313c0.031,0.425,0.053,0.855,0.056,1.286c3.412-4.086,5.763-9.131,7.93-14.058
					C1054.621,751.069,1056.826,745.124,1054.514,739.985z M996.153,777.786c-1.036,0.811-2.152,1.654-3.463,1.773
					c1.313-1.29,2.673-2.651,3.239-4.403c0.431-1.334,2.311-6.983,4.072-3.922C1001.385,773.637,997.643,776.621,996.153,777.786z
					 M1003.65,761.429c-2.793,2.772-5.8,5.328-8.986,7.638c0.481-1.424,0.962-2.847,1.443-4.27c0.765-2.263,1.576-4.604,3.229-6.327
					C1002.814,754.848,1008.448,756.667,1003.65,761.429z M1016.063,745.74c-0.684,1.82-2.841,2.944-4.726,2.462
					c-1.032-0.264-2.033-1.149-1.928-2.21c2.411-0.413,4.822-0.827,7.232-1.24L1016.063,745.74z M1014.658,742.727
					c-3.417,1.081-7.029,1.377-10.52,2.192c-3.49,0.816-7.019,2.274-9.235,5.091c-0.07-1.611,1.112-2.974,2.219-4.147
					c1.032-1.093,2.064-2.187,3.097-3.28c0.604-0.641,1.223-1.292,2-1.704c0.981-0.522,2.125-0.618,3.194-0.921
					c1.838-0.521,3.432-1.647,5.058-2.65c2.095-1.293,7.129-3.601,8.833-0.388C1020.816,739.771,1016.812,742.046,1014.658,742.727z
					 M1022.068,727.78c-0.68,0.208-1.35-0.284-1.927-0.698c-1.5-1.077-3.245-1.811-5.064-2.127c0.679-1.001,1.948-1.47,3.157-1.485
					s2.387,0.354,3.539,0.721c0.203,0.064,0.425,0.159,0.598,0.289l-0.123-0.229c0.71-0.173,1,0.888,0.91,1.613
					C1023.063,726.638,1022.813,727.552,1022.068,727.78z M1024.527,768.15c-0.527,2.072-1.055,4.144-1.581,6.215
					c-0.511,2.009-1.06,4.094-2.396,5.678c-1.336,1.585-3.707,2.502-5.541,1.537c0.184-0.506,0.497-0.954,0.761-1.424
					c0.865-1.543,1.201-3.318,1.523-5.059c0.615-3.313,0.916-15.15,4.229-16.595C1026.974,756.124,1025.098,765.908,1024.527,768.15
					z M1042.219,741.963c-0.005-0.388,0.074-0.763,0.184-1.134c-0.093-0.382-0.306-0.756-0.569-1.045
					c-0.541-0.592-1.266-1.013-1.72-1.674c-0.454-0.66-0.492-1.735,0.211-2.121c0.49-0.27,1.101-0.082,1.607,0.154l-0.326,0.342
					c1.063-0.022,1.6,1.354,1.403,2.4c-0.124,0.664-0.414,1.297-0.606,1.943C1042.501,741.229,1042.468,741.637,1042.219,741.963z"
					/>
				<path fill="#2A7CBA" d="M1056.411,762.857c0.226,0.655,1.135,4.812,2.212,8.639c0.291-0.084,0.582-0.173,0.874-0.251
					c4.874-1.305,9.878-1.953,14.895-2.561c-0.387-5.207-0.483-10.444-0.579-15.669c-0.031-1.727-1.218-9.446,0.234-10.385
					c3.069-1.983,4.117,3.172,4.754,4.97c2.3,6.501,4.574,13.012,6.854,19.521c0.231-0.042,0.465-0.074,0.696-0.117
					c4.409-0.824,8.865-2.086,12.922-4.012c-1.05-1.983-2.406-3.858-3.667-5.719c-3.497-5.159-6.903-11.039-8.626-17.054
					c2.883,0.798,13.249,11.416,19.769,17.928c1.167-1.028,2.252-2.151,3.225-3.394c4.692-5.988,6.323-14.257,4.255-21.578
					c-0.698-2.474-1.805-4.854-3.42-6.853c-3.547-4.388-8.998-6.349-14.346-7.491c-6.199-1.324-8.412-1.925-13.668-5.56
					c-9.432-6.522-21.263-9.605-32.672-8.285c-6.898,0.799-13.838,3.323-18.664,8.285c2.02,0.676,4.039,1.353,6.059,2.028
					c1.792,0.6,3.586,1.2,5.315,1.96c1.095,0.48,2.161,1.024,3.228,1.567c1.517,0.773,3.083,1.483,4.452,2.454
					c-1.994,1.991-10.263-1.16-13.199-1.538c-3.329-0.428-6.682-0.636-10.036-0.66c-0.506,0.942-0.983,1.899-1.406,2.881
					c-1.39,3.225-2.362,6.552-2.977,9.941c2.417-0.175,4.834-0.349,7.25-0.523c3.701-0.268,10.1-0.959,12.62,2.375
					c-1.678,1.42-4.733,1.377-6.979,1.697c-4.719,0.671-9.334,2.031-13.676,3.995c-0.146,4.525,0.256,9.105,1.098,13.65
					c1.747-0.525,3.507-1.006,5.281-1.428c2.343-0.558,4.743-1.037,6.868-2.169c3.001-1.598,5.677-4.531,9.063-4.231
					c-5.564,3.129-11.585,10.727-15.328,15.807c-0.371,0.504-1.484,1.938-2.791,3.7c1.409,4.129,3.106,8.159,5,12.016
					c1.802,3.667,3.839,7.337,6.938,9.998c2.972-6.403,8.893-10.83,15.501-13.587
					C1054.434,769.675,1055.262,766.171,1056.411,762.857z M1085.786,722.775c0.32-0.146,0.692-0.102,1.041-0.051
					c3.794,0.552,7.546,1.395,11.212,2.52l0.945-0.494c0.829-0.015,1.708-0.017,2.417,0.414c0.709,0.43,1.118,1.461,0.607,2.114
					c-0.345,0.441-0.955,0.555-1.509,0.637c-2.521,0.372-5.07,0.745-7.607,0.516c-2.538-0.229-5.102-1.123-6.877-2.951
					C1085.274,724.716,1084.818,723.22,1085.786,722.775z M1038.403,766.642c-1.565,0.927-3.604,1.815-5.086,0.761
					c2.029-4.101,4.933-7.766,8.459-10.682l1.132-0.646c1.277,0.731,1.767,2.401,1.542,3.856
					C1043.973,763.012,1041.085,765.055,1038.403,766.642z M1050.153,728.027c-3.042,0.479-6.4,0.896-8.986-0.773
					c-0.761-0.491-1.451-1.538-0.865-2.229c4-0.289,8.042,0.011,11.956,0.888l1.454,0.311
					C1053.088,727.459,1051.521,727.812,1050.153,728.027z M1044.665,709.661c5.755-1.137,11.824-1.162,17.57,0.056
					c5.047,1.069,7.584,5.107,0.74,3.702C1056.872,712.166,1050.769,710.913,1044.665,709.661z"/>
			</g>
		</g>
		<g clip-path="url(#SVGID_4_)">
			<path fill="#2A7CBA" d="M1136.048,269.033v595.736c0,3.056,2.477,5.532,5.532,5.532h4.291c3.055,0,5.532,2.478,5.532,5.533l0,0
				c0,3.055,2.477,5.532,5.532,5.532h24.274V269.033H1136.048z"/>
			<path opacity="0.81" fill="#38A6E8" d="M1150.5,269.033h-14.452v595.736c0,3.056,2.477,5.532,5.532,5.532h4.291
				c1.94,0,3.642,1.004,4.629,2.517V269.033z"/>
			<path fill="#113E60" d="M1183.558,273.894h-912.66c-2.071,0-3.75-1.679-3.75-3.75v-11.143c0-2.071,1.679-3.75,3.75-3.75h912.66
				c2.071,0,3.75,1.679,3.75,3.75v11.143C1187.308,272.214,1185.629,273.894,1183.558,273.894z"/>
		</g>
		<linearGradient id="SVGID_8_" gradientUnits="userSpaceOnUse" x1="189.6187" y1="267.2358" x2="189.6187" y2="378.6008">
			<stop  offset="0" style="stop-color:#FFFFFF"/>
			<stop  offset="1" style="stop-color:#FFFFFF;stop-opacity:0"/>
		</linearGradient>
		<polygon clip-path="url(#SVGID_4_)" fill="url(#SVGID_8_)" points="155.726,289.476 122.12,410.227 257.117,410.227 
			218.01,289.476 		"/>
		<linearGradient id="SVGID_9_" gradientUnits="userSpaceOnUse" x1="1253.29" y1="267.2358" x2="1253.29" y2="378.6008">
			<stop  offset="0" style="stop-color:#FFFFFF"/>
			<stop  offset="1" style="stop-color:#FFFFFF;stop-opacity:0"/>
		</linearGradient>
		<polygon clip-path="url(#SVGID_4_)" fill="url(#SVGID_9_)" points="1219.397,289.476 1185.791,410.227 1320.789,410.227 
			1281.682,289.476 		"/>
		<g clip-path="url(#SVGID_4_)">
			<path fill="#113E60" d="M222.475,297.583h-73.841v-46.591c0-15.05,12.2-27.25,27.25-27.25h19.341c15.05,0,27.25,12.2,27.25,27.25
				V297.583z"/>
			<path fill="#113E60" d="M189.538,233h-7.968c-3.038,0-5.5-2.462-5.5-5.5v-3.904c0-3.038,2.462-5.5,5.5-5.5h7.968
				c3.038,0,5.5,2.462,5.5,5.5v3.904C195.038,230.538,192.576,233,189.538,233z"/>
			<rect x="181.489" y="38.457" fill="#113E60" width="8.129" height="186.984"/>
		</g>
		<g clip-path="url(#SVGID_4_)">
			<path fill="#113E60" d="M1290.442,297.583h-73.841v-46.591c0-15.05,12.2-27.25,27.25-27.25h19.341
				c15.05,0,27.25,12.2,27.25,27.25V297.583z"/>
			<path fill="#113E60" d="M1257.506,233h-7.968c-3.038,0-5.5-2.462-5.5-5.5v-3.904c0-3.038,2.462-5.5,5.5-5.5h7.968
				c3.038,0,5.5,2.462,5.5,5.5v3.904C1263.006,230.538,1260.544,233,1257.506,233z"/>
			<rect x="1249.457" y="38.457" fill="#113E60" width="8.129" height="186.984"/>
		</g>
		<g clip-path="url(#SVGID_4_)">
			<rect x="249.817" y="762.588" fill="#4E79A0" width="14.601" height="109.165"/>
			<path fill="#1C5077" d="M270.355,772.322H243.88c-6.512,0-11.792-5.279-11.792-11.792v-9.153h50.059v9.153
				C282.147,767.043,276.868,772.322,270.355,772.322z"/>
			<rect x="244.617" y="766.499" fill="#1C5077" width="25.002" height="25.002"/>
			<path fill="#1C5077" d="M306.342,887.396h-98.448v-6.246c0-5.766,4.674-10.44,10.44-10.44h77.567
				c5.766,0,10.44,4.675,10.44,10.44V887.396z"/>
			<rect x="196.137" y="575.142" fill="#1C5077" width="10.743" height="30.154"/>
			<rect x="216.59" y="575.142" fill="#1C5077" width="10.744" height="30.154"/>
			<path fill="#205C91" d="M246.986,552.613h-74.412c-5.784,0-10.474,4.689-10.474,10.474v9.391c0,5.785,4.689,10.474,10.474,10.474
				h74.412c5.784,0,10.474-4.688,10.474-10.474v-9.391C257.46,557.303,252.771,552.613,246.986,552.613z"/>
			<path fill="#2A7CBA" d="M257.46,572.478v-9.391c0-5.784-4.689-10.474-10.474-10.474h-62.723c-5.784,0-10.474,4.689-10.474,10.474
				v9.391c0,5.785,4.689,10.474,10.474,10.474h62.723C252.771,582.951,257.46,578.263,257.46,572.478z"/>
			<path fill="#205C91" d="M265.837,723.22h-71.255c-5.806,0-10.763-4.195-11.723-9.921l-18.437-109.978
				c-1.215-7.249,4.374-13.852,11.723-13.852H247.4c5.806,0,10.763,4.194,11.723,9.921l18.437,109.978
				C278.775,716.616,273.187,723.22,265.837,723.22z"/>
			<path fill="#2A7CBA" d="M277.56,709.368l-18.437-109.978c-0.96-5.727-5.917-9.921-11.723-9.921h-58.904
				c-7.35,0-12.938,6.603-11.723,13.852l18.437,109.978c0.96,5.726,5.917,9.921,11.723,9.921h58.904
				C273.187,723.22,278.775,716.616,277.56,709.368z"/>
			<path fill="#205C91" d="M318.905,753.917H196.869c-7.467,0-13.521-6.054-13.521-13.521v-3.724
				c0-7.468,6.053-13.521,13.521-13.521h122.036c7.467,0,13.521,6.053,13.521,13.521v3.724
				C332.426,747.863,326.373,753.917,318.905,753.917z"/>
			<path fill="#2A7CBA" d="M332.426,738.534c0-8.495-6.887-15.382-15.383-15.382h-96.412c-8.496,0-15.383,6.887-15.383,15.382
				c0,8.496,6.887,15.383,15.383,15.383h96.412C325.539,753.917,332.426,747.03,332.426,738.534z"/>
		</g>
		<g clip-path="url(#SVGID_4_)">
			<g>
				<rect x="141.463" y="694.085" fill="#113E60" width="359.495" height="18.065"/>
				<polygon fill="#113E60" points="129.721,887.382 118.43,887.382 163.141,712.15 186.626,712.15 				"/>
				<polygon fill="#113E60" points="510.447,887.382 521.738,887.382 477.026,712.15 453.542,712.15 				"/>
			</g>
		</g>
		<g clip-path="url(#SVGID_4_)">
			<path fill="#113E60" d="M449.395,677.826H312.933c-4.782,0-8.659-3.876-8.659-8.658v-89.244c0-4.782,3.876-8.658,8.659-8.658
				h136.462c4.782,0,8.659,3.876,8.659,8.658v89.244C458.054,673.95,454.177,677.826,449.395,677.826z"/>
			<path fill="#205C91" d="M458.054,666.096v-83.1c0-6.479-5.252-11.73-11.731-11.73H324.135c-6.479,0-11.731,5.252-11.731,11.73
				v83.1c0,6.479,5.252,11.73,11.731,11.73h122.188C452.801,677.826,458.054,672.574,458.054,666.096z"/>
			<path opacity="0.22" fill="#38A6E8" d="M427.04,657.641h-78.202c-4.782,0-8.659-3.876-8.659-8.658v-48.873
				c0-4.782,3.876-8.658,8.659-8.658h78.202c4.782,0,8.659,3.876,8.659,8.658v48.873
				C435.698,653.765,431.821,657.641,427.04,657.641z"/>
			<polygon fill="#113E60" points="425.536,694.085 397.761,694.085 375.197,634.83 375.568,621.147 397.761,621.147 			"/>
			<polygon fill="#205C91" points="375.568,621.147 403.343,694.085 425.536,694.085 397.761,621.147 			"/>
			<path fill="#113E60" d="M435.924,694.085h-72.712v-0.601c0-2.412,1.955-4.367,4.367-4.367h63.979
				c2.412,0,4.367,1.955,4.367,4.367V694.085z"/>
		</g>
		<g clip-path="url(#SVGID_4_)">
			<path fill="#113E60" d="M217.788,694.085h-60.97v-4.259c0-6.627,5.373-12,12-12h36.97c6.627,0,12,5.373,12,12V694.085z"/>
			<path fill="#09384F" d="M195.658,681.439h-15.355l-35.621-81.183c-1.518-3.458,1.016-7.336,4.792-7.336l0,0
				c2.005,0,3.834,1.146,4.709,2.951L195.658,681.439z"/>
			<path fill="#09384F" d="M229.312,546.173l-13.582-7.165l-69.384,55.186c-2.956,2.351-2.524,6.963,0.816,8.725l0,0
				c1.774,0.936,3.926,0.775,5.542-0.413L229.312,546.173z"/>
			<linearGradient id="SVGID_10_" gradientUnits="userSpaceOnUse" x1="231.7915" y1="562.8828" x2="281.2036" y2="605.755">
				<stop  offset="0" style="stop-color:#FFFFFF"/>
				<stop  offset="1" style="stop-color:#FFFFFF;stop-opacity:0"/>
			</linearGradient>
			<path fill="url(#SVGID_10_)" d="M257.887,541.133l67.92,25.789l-67.92,96.137c0,0-37.122-85.704-35.925-87.917
				S257.887,541.133,257.887,541.133z"/>
			<path fill="#09384F" d="M222.011,539.155L222.011,539.155c-11.261,11.262-11.261,29.52,0,40.781l0,0l40.781-40.781
				C251.53,527.894,233.272,527.894,222.011,539.155z"/>
			<path fill="#09384F" d="M229.312,551.558h-23.605v-13.849c0-3.866,3.134-7,7-7h16.605V551.558z"/>
			<circle fill="#205C91" cx="217.51" cy="541.133" r="6.887"/>
		</g>
		<g clip-path="url(#SVGID_4_)">
			<polygon fill="#113E60" points="969.942,572.737 987.237,563.3 987.237,547.062 969.942,556.499 			"/>
			<circle fill="#113E60" cx="970.292" cy="573.121" r="10.274"/>
			<rect x="953.704" y="556.499" fill="#1E577A" width="16.238" height="16.238"/>
			<rect x="967.817" y="579.372" fill="#113E60" width="5.8" height="308.01"/>
			<polygon fill="#113E60" points="874.71,887.382 868.911,887.382 967.817,579.372 973.617,579.372 			"/>
			<polygon fill="#113E60" points="1066.724,887.382 1072.523,887.382 973.617,579.372 967.817,579.372 			"/>
			<path fill="#2A7CBA" d="M1005.02,501.48l-0.005-0.01l-89.063,60.758l8.866,14.547l96.969-40.39l-0.006-0.014
				C1038.045,524.255,1023.593,495.821,1005.02,501.48z"/>
			<path fill="#205C91" d="M1002.462,503.212l-86.511,59.017l8.866,14.547l96.969-40.39l-0.006-0.014
				c0.11-0.083,0.204-0.174,0.312-0.258C1028.429,522.442,1017.555,503.271,1002.462,503.212z"/>
			<path opacity="0.22" fill="#38A6E8" d="M999.483,545.676c1.803-15.518-6.002-26.28-12.123-32.162l-6.794,4.635
				c5.455,4.648,14.088,14.954,9.951,31.262L999.483,545.676z"/>
			<path opacity="0.22" fill="#38A6E8" d="M973.497,556.499l8.71-3.628c0.929-13.17-5.081-22.728-10.592-28.616l-6.685,4.561
				C970.019,533.813,976.188,542.971,973.497,556.499z"/>
			<circle fill="#205C91" cx="921.231" cy="568.984" r="8.575"/>
			<circle fill="#2A7CBA" cx="921.23" cy="568.984" r="6.138"/>
		</g>
		<g clip-path="url(#SVGID_4_)">
			<path fill="#2A7CBA" d="M1730.305,887.382h-503.112V692.805c0-25.215,20.439-45.654,45.654-45.654h411.804
				c25.214,0,45.654,20.439,45.654,45.654V887.382z"/>
			<rect x="1227.192" y="767.266" fill="#38A6E8" width="503.112" height="120.116"/>
			<rect x="1227.192" y="820.541" fill="#205C91" width="503.112" height="66.841"/>
			<path fill="#378EC4" d="M1269.645,887.382h-87.615V766.398c0-17.489,14.178-31.667,31.667-31.667h24.282
				c17.489,0,31.666,14.178,31.666,31.667V887.382z"/>
			<path fill="#378EC4" d="M1775.455,887.382h-87.615V766.398c0-17.489,14.178-31.667,31.666-31.667h24.282
				c17.489,0,31.667,14.178,31.667,31.667V887.382z"/>
			<circle fill="#38A6E8" cx="1334.803" cy="698.684" r="6.897"/>
			<circle fill="#38A6E8" cx="1227.192" cy="767.266" r="6.897"/>
			<circle fill="#38A6E8" cx="1730.305" cy="767.266" r="6.897"/>
			<circle fill="#38A6E8" cx="1430.876" cy="698.684" r="6.897"/>
			<circle fill="#38A6E8" cx="1526.949" cy="698.684" r="6.897"/>
			<circle fill="#38A6E8" cx="1623.022" cy="698.684" r="6.897"/>
		</g>
		<rect x="-91.351" y="887.396" clip-path="url(#SVGID_4_)" fill="#FFFFFF" width="1716.634" height="12.851"/>
		<g clip-path="url(#SVGID_4_)">
			<rect x="518.758" y="883.432" fill="#231F20" width="124.447" height="3.143"/>
			<rect x="538.74" y="798.936" fill="#231F20" width="83.973" height="3.142"/>
			<path fill="none" stroke="#1D4975" stroke-miterlimit="10" d="M577.847,771.352c0,0,10.708-26.886,40.502-24.092
				c29.795,2.793,37.244,69.482,37.244,69.482"/>
			<path fill="#4575AF" d="M558.799,735.354c0,0-7.14-19.169-17.615-7.414C530.71,739.694,558.799,735.354,558.799,735.354z"/>
			<path fill="#4575AF" d="M566.924,739.794c0,0-10.202-17.325,2.542-18.547C582.211,720.025,566.924,739.794,566.924,739.794z"/>
			<path fill="#231F20" d="M569.594,742.271c0,0-23.58-1.344-16.655,8.98C559.865,761.575,569.594,742.271,569.594,742.271z"/>
			<path fill="#4575AF" d="M572.431,745.596c0,0-0.171-17.365,9.78-13.524S572.431,745.596,572.431,745.596z"/>
			<path fill="#231F20" d="M576.195,751.397c0,0-17.727-4.561-14.061,7.085C565.8,770.129,576.195,751.397,576.195,751.397z"/>
			<path fill="#231F20" d="M576.976,752.846c0,0,4.397-14.758,10.342-7.25C593.262,753.103,576.976,752.846,576.976,752.846z"/>
			<path fill="none" stroke="#1D4975" stroke-miterlimit="10" d="M556.431,734.922c0,0,18.622,0.382,27.467,37.318"/>
			<path fill="none" stroke="#1D4975" stroke-miterlimit="10" d="M528.033,796.142c0,0,16.294-69.832,49.813-27.933"/>
			<path fill="#5680BF" d="M655.391,815.144c0,0-9.746,15.216,0,16.612S655.391,815.144,655.391,815.144z"/>
			<path fill="#3C6399" d="M652.388,798.586c0,0-20.247-0.523-13.438,10.998C645.758,821.106,652.388,798.586,652.388,798.586z"/>
			<path fill="#4575AF" d="M669.501,810.108c0,0,6.8-16.585-17.113-11.522C652.388,798.586,660.248,819.885,669.501,810.108z"/>
			<path fill="#5680BF" d="M649.15,786.238c0,0-14.391-5.11-14.74,5.539C634.062,802.427,649.15,786.238,649.15,786.238z"/>
			<path fill="#3C6399" d="M649.677,788.015c0,0,13.889-10.029,16.856-0.951S649.677,788.015,649.677,788.015z"/>
			<path fill="#3C6399" d="M641.777,767.522c0,0-14.176-1.583-11.731,8.892S641.777,767.522,641.777,767.522z"/>
			<path fill="#4575AF" d="M642.743,769.461c0,0,7.222-17.837,18.648-9.282C672.818,768.732,642.743,769.461,642.743,769.461z"/>
			<path fill="#5680BF" d="M628.791,751.252c0,0-12.187,3.841-6.077,12.406C628.824,772.225,628.791,751.252,628.791,751.252z"/>
			<path fill="#3C6399" d="M628.791,751.252c0,0,10.159-18.657,18.713-8.357C656.058,753.195,628.791,751.252,628.791,751.252z"/>
			<path fill="#4575AF" d="M614.676,747.063c0,0-1.215-14.178,8.038-12.142C631.966,736.959,614.676,747.063,614.676,747.063z"/>
			<path fill="#3C6399" d="M614.676,747.063c0,0-12.912,6.83-5.754,13.639C616.08,767.511,614.676,747.063,614.676,747.063z"/>
			<path fill="#3C6399" d="M605.473,747.971c0,0-9.645-15.551,2.052-17.995C619.222,727.532,605.473,747.971,605.473,747.971z"/>
			<path fill="#4575AF" d="M600.293,749.514c0,0-9.877,12.213-1.148,14.145S600.293,749.514,600.293,749.514z"/>
			<path fill="#5680BF" d="M597.122,750.9c0,0-16.482-5.91-6.706-15.163C600.193,726.484,597.122,750.9,597.122,750.9z"/>
			<path fill="#3C6399" d="M589.259,756.104c0,0-8.881,10.068-1.941,13.356C594.257,772.748,589.259,756.104,589.259,756.104z"/>
			<path fill="#4575AF" d="M528.948,792.695c0,0-15.347,9.906-5.047,17.238S528.948,792.695,528.948,792.695z"/>
			<path fill="#3C6399" d="M535.32,775.481c0,0-19.435-5.419-16.562,8.231C521.632,797.364,535.32,775.481,535.32,775.481z"/>
			<path fill="#4575AF" d="M536.296,773.479c0,0,15.189,7.735,4.54,17.881C530.186,801.507,536.296,773.479,536.296,773.479z"/>
			<path fill="#3C6399" d="M541.741,764.543c0,0-8.937-16.166-18.364-6.687S541.741,764.543,541.741,764.543z"/>
			<path fill="#5680BF" d="M548.822,756.667c0,0-17.971-2.482-13.502-9.611S548.953,743.902,548.822,756.667z"/>
			<path fill="#3C6399" d="M560.167,755.092c0,0-14.854-9.044-5.658-14.199S560.167,755.092,560.167,755.092z"/>
			<path fill="#3C6399" d="M566.149,757.856c0,0-8.438-14.146,2.24-13.855S566.149,757.856,566.149,757.856z"/>
			<path fill="#4575AF" d="M571.925,761.981c0,0,4.031-16.554,11.02-9.97S571.925,761.981,571.925,761.981z"/>
			<path fill="#231F20" d="M598.63,768.223c0,0,5.512-11.384,12.703-4.564C618.523,770.479,598.63,768.223,598.63,768.223z"/>
			<path fill="#FFFFFF" d="M584.299,798.586h-6.634c-16.777,0-30.377-13.601-30.377-30.377l0,0h67.388l0,0
				C614.676,784.985,601.075,798.586,584.299,798.586z"/>
			<polyline fill="none" stroke="#231F20" stroke-miterlimit="10" points="643.205,883.432 614.676,774.843 547.288,774.843 
				518.758,883.432 			"/>
			<line fill="none" stroke="#231F20" stroke-miterlimit="10" x1="571.562" y1="774.843" x2="552.707" y2="883.432"/>
			<line fill="none" stroke="#231F20" stroke-miterlimit="10" x1="592.478" y1="774.843" x2="611.333" y2="883.432"/>
			<path fill="none" stroke="#1D4975" stroke-miterlimit="10" d="M593.908,768.209c0,0,19.204-10.32,15.363,63.624"/>
			<path fill="#5680BF" d="M609.41,828.969c0,0-9.874,8.782-2.649,12.594C613.984,845.373,609.41,828.969,609.41,828.969z"/>
			<path fill="#3C6399" d="M609.779,813.774c0,0-12.03-3.317-9.237,6.809C603.335,830.709,609.779,813.774,609.779,813.774z"/>
			<path fill="#4575AF" d="M609.779,816.742c0,0,11.712-2.968,12.935,8.729C623.936,837.168,609.779,816.742,609.779,816.742z"/>
			<path fill="#5680BF" d="M609.366,799.775c0,0-15.766-2.759-11.788,5.949C601.558,814.432,609.366,799.775,609.366,799.775z"/>
			<path fill="#3C6399" d="M609.366,801.964c0,0,12.712-2.277,11.633,8.869C619.92,821.979,609.366,801.964,609.366,801.964z"/>
			<path fill="#3C6399" d="M608.125,788.195c0,0-14.915-7.936-14.217,2.014C594.606,800.157,608.125,788.195,608.125,788.195z"/>
			<path fill="#4575AF" d="M608.423,790.209c0,0,7.307-5.674,10.624,2.486S608.423,790.209,608.423,790.209z"/>
			<path fill="#3C6399" d="M604.95,776.02c0,0-10.819-8.6-12.502,0S604.95,776.02,604.95,776.02z"/>
			<path fill="#4575AF" d="M605.573,777.647c0,0,10.829-9.962,13.984-1.059S605.573,777.647,605.573,777.647z"/>
			<path fill="#4575AF" d="M542.961,762.998c0,0-5.458,17.094,4.326,18.31C557.071,782.524,542.961,762.998,542.961,762.998z"/>
			<path fill="#4575AF" d="M552.707,755.62c0,0-10.126,13.702,2.444,17.859S552.707,755.62,552.707,755.62z"/>
			<path fill="#3C6399" d="M563.059,755.932c0,0-11.995,13.356,0,16.309C575.053,775.192,563.059,755.932,563.059,755.932z"/>
		</g>
	</g>
</g>
</svg>
